# xmcd
#
# Track frame offsets:
# 150
# 15174
# 31534
# 51150
# 64017
# 82338
# 97246
# 109519
# 124744
# 141272
# 157303
# 170254
# 185327
# 197651
# 212737
#
# Disc length: 3024 seconds
#
#
# Revision: 0
# Processed by: cddbd v1.5.2PL0 Copyright (c) Steve Scherf et al.
# Submitted via: FreeRIP 2.96 
#
DISCID=cc0bce0f
DTITLE=Trio Virgulino - Isto Sim E Sao Joao!
DYEAR=2007
DGENRE=Forró
TTITLE0=Olha pro ceu
TTITLE1=Voce caiu do ceu
TTITLE2=Pula Fogueira_Isto e la com Santo Antonio
TTITLE3=O Menina, chega ca
TTITLE4=Frevo Mulher
TTITLE5=Fogareu
TTITLE6=Balao Dourado
TTITLE7=Brincar de Sao Joao
TTITLE8=Forro do xenhenhem_Oia eu aqui de novo
TTITLE9=Escorregando no Pifan_Forro em Sao Miguel
TTITLE10=Mudar pra melhorar
TTITLE11=Aproveita gente_Casamento de Rosa
TTITLE12=O maior tocador (Seu Januario)
TTITLE13=Noites brasileiras
TTITLE14=Lenha na fogueira
EXTD=
EXTT0=
EXTT1=
EXTT2=
EXTT3=
EXTT4=
EXTT5=
EXTT6=
EXTT7=
EXTT8=
EXTT9=
EXTT10=
EXTT11=
EXTT12=
EXTT13=
EXTT14=
PLAYORDER=
